<?xml version="1.0" encoding="UTF-8"?>
<!-- Created with Grafika (https://www.grafika.cc/) -->
<svg xmlns="http://www.w3.org/2000/svg" xmlns:svg="http://www.w3.org/2000/svg" xmlns:xlink="http://www.w3.org/1999/xlink" width="2048" height="571.74" viewBox="0 0 396.51 110.69" preserveAspectRatio="xMidYMid meet">
	<defs>
		<mask id="mask_1" mask-type="alpha">
			<path d="M-238,-70 L238,-70 L238,70 L-238,70 L-238,-70 Z" style="fill:white;" />
		</mask>
	</defs>
	<g transform="matrix(1, 0, 0, 1, 192.44529724121094, 57.976192474365234)">
		<g mask="url(#mask_1)">
			<path d="M-158.35,52.4 L-158.04,52.09 L-159.05,51.01 L-160.07,49.93 L-160.73,49.93 L-161.39,49.93 L-162.62,49.07 L-163.86,48.21 L-164.79,47.95 L-165.72,47.68 L-168.97,46.67 L-172.22,45.66 L-172.92,45.53 L-173.62,45.41 L-174.32,45.15 L-175.01,44.89 L-179.43,43.64 L-183.85,42.4 L-186.4,41.78 L-188.96,41.17 L-190.7,40.56 L-192.45,39.94 L-192.45,39.61 L-192.45,39.29 L-189.31,37.84 L-186.17,36.4 L-185.42,36 L-184.68,35.6 L-182.54,35.28 L-180.4,34.95 L-178.65,36.4 L-176.89,37.84 L-176.31,37.84 L-175.73,37.84 L-173.05,39.08 L-170.37,40.31 L-168.51,41.1 L-166.65,41.89 L-165.02,42.48 L-163.39,43.06 L-160.37,44.22 L-157.35,45.38 L-155.49,45.95 L-153.63,46.52 L-151.9,47.3 L-150.17,48.07 L-149.7,48.07 L-149.23,48.07 L-146.09,49.3 L-142.94,50.53 L-141.34,51.22 L-139.74,51.92 L-138.55,52.28 L-137.36,52.64 L-148.01,52.68 L-158.67,52.72 L-158.35,52.4 ZM-135.91,38.89 L-136.27,37.39 L-136.81,37.06 L-137.34,36.73 L-145.25,36.35 L-153.17,35.98 L-164.55,35.71 L-175.94,35.44 L-177.34,35.37 L-178.73,35.29 L-178.73,34.64 L-178.73,33.99 L-175.94,33.09 L-173.15,32.19 L-172.71,31.76 L-172.27,31.34 L-170.98,31.34 L-169.7,31.34 L-167.15,30.17 L-164.61,29.01 L-164,29 L-163.39,29 L-161.3,28.26 L-159.21,27.53 L-155.96,26.63 L-152.7,25.73 L-149.45,24.82 L-146.19,23.91 L-141.78,22.68 L-137.36,21.45 L-135.73,21.25 L-134.11,21.05 L-127.83,22.72 L-121.56,24.38 L-115.51,25.97 L-109.47,27.55 L-105.75,28.53 L-102.03,29.51 L-98.55,30.48 L-95.06,31.45 L-91.34,32.56 L-87.62,33.67 L-85.76,34.81 L-83.9,35.96 L-88.09,36.02 L-92.27,36.09 L-97.38,36 L-102.5,35.91 L-108.54,35.02 L-114.58,34.14 L-117.84,33.48 L-121.09,32.83 L-123.69,32.11 L-126.28,31.39 L-129.27,30.38 L-132.25,29.37 L-132.78,28.7 L-133.32,28.03 L-133.66,28.58 L-134,29.13 L-134.78,34.76 L-135.56,40.4 L-135.91,38.89 ZM-91.11,29.39 L-94.6,27.48 L-97.84,25.34 L-101.09,23.2 L-102.31,22.5 L-103.52,21.81 L-113,15.85 L-122.49,9.89 L-123.41,9.34 L-124.34,8.79 L-128.29,6.19 L-132.25,3.58 L-133.51,2.82 L-134.77,2.05 L-134.5,-27.58 L-134.22,-57.22 L-133.88,-57.6 L-133.53,-57.98 L-131.98,-55.27 L-130.42,-52.57 L-129.79,-51.41 L-129.16,-50.24 L-127.86,-47.92 L-126.55,-45.6 L-125.4,-43.5 L-124.24,-41.41 L-123.33,-39.79 L-122.42,-38.16 L-119.72,-33.34 L-117.03,-28.52 L-115.21,-25.2 L-113.39,-21.89 L-112.15,-19.33 L-110.91,-16.78 L-110.65,-16.54 L-110.39,-16.31 L-108.08,-11.78 L-105.76,-7.25 L-105.26,-7.25 L-104.75,-7.25 L-103.8,-8.29 L-102.85,-9.34 L-95.99,-19.45 L-89.12,-29.56 L-88.84,-29.55 L-88.55,-29.55 L-87.99,-28.33 L-87.42,-27.12 L-87.93,-26.17 L-88.43,-25.23 L-88.12,-6.36 L-87.8,12.51 L-87.38,20.41 L-86.96,28.31 L-87.29,29.8 L-87.62,31.29 L-91.11,29.39 ZM36.3,17.16 L33.33,16.49 L31.54,15.31 L29.75,14.12 L29.75,13.85 L29.75,13.58 L30.54,12.25 L31.33,10.91 L32.01,10.65 L32.68,10.39 L33.66,11.25 L34.63,12.1 L35.93,12.65 L37.23,13.21 L40.25,13.21 L43.28,13.21 L44.59,12.53 L45.91,11.84 L46.2,10.7 L46.48,9.56 L46.23,8.89 L45.97,8.22 L44.95,7.73 L43.93,7.23 L39.88,6.52 L35.83,5.81 L33.93,4.84 L32.04,3.87 L31.13,2.38 L30.22,0.89 L30.22,-0.79 L30.21,-2.46 L31.26,-4.01 L32.31,-5.56 L34.59,-6.7 L36.88,-7.83 L40.41,-7.85 L43.93,-7.87 L45.79,-7.23 L47.65,-6.58 L48.92,-5.72 L50.2,-4.86 L50.2,-4.23 L50.2,-3.59 L49.02,-2.67 L47.84,-1.74 L45.65,-2.71 L43.46,-3.68 L40.83,-3.71 L38.2,-3.75 L37.23,-2.87 L36.26,-1.99 L36.26,-0.91 L36.26,0.17 L37.41,0.92 L38.56,1.68 L43.06,2.55 L47.55,3.42 L49.07,4.46 L50.59,5.5 L51.33,7.05 L52.06,8.59 L52.06,10.13 L52.06,11.68 L51.02,13.25 L49.97,14.83 L47.41,16.09 L44.86,17.35 L42.07,17.59 L39.28,17.83 L36.3,17.16 ZM60.96,17.35 L59.4,16.87 L57.57,15.66 L55.74,14.45 L55.88,13.53 L56.01,12.6 L57.22,11.71 L58.42,10.81 L60.19,12.01 L61.95,13.21 L65.31,13.21 L68.67,13.21 L69.9,12.24 L71.12,11.28 L71.12,9.98 L71.12,8.67 L70.43,8.1 L69.74,7.52 L65.2,6.63 L60.66,5.74 L58.8,4.82 L56.94,3.9 L56.02,2.63 L55.09,1.35 L55.09,-0.54 L55.08,-2.43 L56.25,-4.14 L57.41,-5.85 L59.5,-6.86 L61.59,-7.88 L65.78,-7.87 L69.96,-7.87 L72.57,-6.68 L75.19,-5.49 L75.52,-4.94 L75.86,-4.4 L75.01,-3.46 L74.15,-2.51 L73.41,-2.11 L72.67,-1.72 L69.72,-2.91 L66.77,-4.09 L64.75,-3.87 L62.72,-3.64 L61.81,-2.81 L60.89,-1.99 L60.89,-0.72 L60.89,0.56 L62.76,1.3 L64.63,2.05 L65.9,2.07 L67.17,2.08 L69.88,2.73 L72.6,3.38 L74.17,4.46 L75.75,5.54 L76.28,6.82 L76.82,8.1 L76.59,10.46 L76.36,12.81 L75.46,14.06 L74.56,15.3 L72.3,16.43 L70.03,17.57 L66.28,17.7 L62.52,17.83 L60.96,17.35 ZM114.82,17.12 L112.26,16.44 L110.43,15.12 L108.6,13.8 L107.23,11.39 L105.87,8.98 L105.86,4.94 L105.85,0.89 L106.55,-0.74 L107.24,-2.37 L108.53,-3.9 L109.82,-5.43 L112.17,-6.62 L114.52,-7.81 L118.27,-7.81 L122.02,-7.81 L124.11,-6.9 L126.21,-5.98 L127.94,-4.19 L129.68,-2.4 L130.41,-0.2 L131.14,1.99 L131,4 L130.85,6 L121.32,6.47 L111.79,6.93 L111.93,7.86 L112.06,8.79 L112.61,9.88 L113.16,10.96 L115.07,12.08 L116.99,13.21 L119.41,13.21 L121.83,13.21 L123.55,12.27 L125.28,11.34 L126.07,10.77 L126.87,10.21 L128.28,11.56 L129.69,12.92 L129.69,13.52 L129.69,14.12 L127.95,15.27 L126.21,16.42 L123.43,17.14 L120.66,17.86 L119.02,17.82 L117.37,17.79 L114.82,17.12 ZM124.85,1.89 L125.09,1.26 L124.08,-0.46 L123.07,-2.17 L121.62,-2.92 L120.16,-3.68 L117.87,-3.63 L115.57,-3.58 L114.41,-2.71 L113.25,-1.85 L112.37,-0.15 L111.49,1.55 L111.79,2.03 L112.08,2.52 L118.34,2.52 L124.61,2.52 L124.85,1.89 ZM159.05,16.97 L156.56,16.11 L155.33,15.19 L154.1,14.28 L153.95,13.33 L153.81,12.38 L155.08,11.39 L156.34,10.4 L157.31,11.25 L158.28,12.1 L159.58,12.65 L160.88,13.21 L163.67,13.21 L166.46,13.21 L167.78,12.53 L169.09,11.85 L169.38,11.09 L169.67,10.34 L169.67,9.46 L169.67,8.58 L168.62,7.92 L167.58,7.27 L163.47,6.53 L159.36,5.78 L157.65,4.82 L155.94,3.86 L154.9,2.35 L153.86,0.83 L153.86,-0.81 L153.86,-2.46 L154.91,-4.04 L155.96,-5.62 L158.28,-6.75 L160.6,-7.87 L164.6,-7.91 L168.6,-7.94 L169.95,-7.26 L171.29,-6.58 L172.57,-5.72 L173.85,-4.86 L173.84,-4.08 L173.82,-3.29 L172.71,-2.49 L171.61,-1.68 L169.44,-2.64 L167.28,-3.6 L164.82,-3.66 L162.35,-3.72 L161.19,-2.95 L160.03,-2.19 L159.79,-1.25 L159.54,-0.32 L160.07,0.37 L160.6,1.05 L165.48,2.06 L170.37,3.06 L172.28,4.16 L174.19,5.27 L174.67,6.57 L175.16,7.86 L175.43,8.71 L175.71,9.56 L175.19,11.63 L174.66,13.7 L172.81,15.29 L170.96,16.87 L168.66,17.36 L166.37,17.86 L163.95,17.84 L161.53,17.83 L159.05,16.97 ZM6.74,16.54 L4.88,15.65 L3.76,14.43 L2.63,13.21 L2.46,10.77 L2.29,8.33 L3.35,6.49 L4.42,4.66 L6.71,3.48 L9.01,2.3 L13.92,2.18 L18.83,2.07 L18.96,0.54 L19.1,-1 L17.88,-2.15 L16.66,-3.29 L13.79,-3.28 L10.92,-3.27 L8.9,-2.45 L6.87,-1.64 L6.07,-1.89 L5.26,-2.15 L4.65,-3.29 L4.04,-4.43 L4.62,-5.12 L5.2,-5.82 L7.73,-6.76 L10.26,-7.71 L13.56,-7.71 L16.86,-7.71 L18.63,-7.18 L20.4,-6.65 L22.04,-5.3 L23.69,-3.94 L24.39,-1.56 L25.1,0.82 L25.1,6.7 L25.1,12.57 L26.48,13.59 L27.87,14.61 L27.34,15.77 L26.81,16.93 L24.62,16.93 L22.44,16.93 L21.21,15.96 L19.98,14.99 L17.77,16.07 L15.57,17.14 L12.09,17.28 L8.6,17.42 L6.74,16.54 ZM17.54,11.98 L19.05,10.84 L19.34,9.7 L19.62,8.56 L19.34,7.43 L19.06,6.31 L17.67,6 L16.29,5.7 L13.61,6.03 L10.92,6.35 L9.63,7.01 L8.33,7.67 L7.89,8.81 L7.46,9.95 L7.87,11.02 L8.27,12.08 L8.9,12.6 L9.53,13.12 L10.69,13.35 L11.85,13.58 L13.95,13.35 L16.04,13.12 L17.54,11.98 ZM86.64,13.79 L85.01,10.19 L84.62,9.26 L84.23,8.33 L83.46,6.58 L82.7,4.83 L80.41,-0.84 L78.13,-6.52 L78.69,-6.87 L79.26,-7.23 L81.44,-7.24 L83.62,-7.25 L83.98,-6.67 L84.34,-6.08 L86.82,-0.04 L89.3,6 L89.83,7.53 L90.35,9.06 L90.99,8.93 L91.64,8.79 L94.4,2.09 L97.15,-4.61 L97.15,-5.16 L97.15,-5.71 L98,-6.48 L98.85,-7.25 L100.81,-7.25 L102.76,-7.25 L103.02,-6.57 L103.28,-5.9 L100.72,0.52 L98.17,6.93 L96.41,11.58 L94.66,16.23 L93.96,16.81 L93.26,17.39 L90.76,17.39 L88.26,17.39 L86.64,13.79 ZM186.17,16.29 L183.85,15.2 L182.52,13.86 L181.19,12.52 L180.01,10.19 L178.83,7.86 L178.8,4.11 L178.78,0.36 L180.02,-1.77 L181.27,-3.89 L182.73,-5.12 L184.19,-6.35 L185.82,-7.03 L187.45,-7.71 L190.94,-7.71 L194.43,-7.71 L196.25,-7.16 L198.08,-6.62 L200.09,-4.85 L202.1,-3.08 L203.08,-0.99 L204.07,1.11 L204.07,3.67 L204.07,6.23 L197.21,6.27 L190.35,6.3 L187.8,6.38 L185.26,6.47 L185.08,7.38 L184.9,8.29 L185.71,9.8 L186.52,11.3 L188.55,12.25 L190.58,13.21 L192.56,13.2 L194.54,13.19 L196.46,12.32 L198.37,11.44 L198.69,10.93 L199.01,10.42 L199.79,10.43 L200.58,10.43 L201.62,11.92 L202.65,13.4 L201.66,14.46 L200.66,15.52 L198.16,16.46 L195.66,17.39 L192.08,17.39 L188.49,17.38 L186.17,16.29 ZM198.16,1.89 L198.4,1.27 L197.72,-0.13 L197.05,-1.52 L195.17,-2.58 L193.29,-3.64 L190.86,-3.43 L188.43,-3.23 L187.22,-2.33 L186.02,-1.44 L185.24,-0.13 L184.46,1.17 L184.72,1.84 L184.98,2.52 L191.45,2.52 L197.92,2.52 L198.16,1.89 ZM-39.76,16.36 L-39.99,15.75 L-39.87,4.37 L-39.74,-7.01 L-37.67,-7.16 L-35.59,-7.31 L-34.99,-6.49 L-34.39,-5.67 L-32.29,-6.69 L-30.19,-7.71 L-27.67,-7.71 L-25.15,-7.71 L-23.85,-7.16 L-22.54,-6.61 L-21.03,-5.21 L-19.52,-3.81 L-18.01,-5.21 L-16.5,-6.61 L-15.2,-7.16 L-13.9,-7.71 L-11.42,-7.71 L-8.95,-7.71 L-7.29,-7.02 L-5.64,-6.33 L-4.25,-4.84 L-2.86,-3.36 L-2.34,-1.47 L-1.82,0.42 L-1.96,8.56 L-2.09,16.69 L-4.53,16.83 L-6.97,16.97 L-7.04,16.83 L-7.1,16.69 L-7.39,8.22 L-7.67,-0.25 L-8.89,-1.48 L-10.12,-2.7 L-12.21,-2.94 L-14.3,-3.17 L-16.1,-1.53 L-17.9,0.12 L-18.04,8.52 L-18.19,16.93 L-20.95,16.93 L-23.71,16.93 L-23.71,8.75 L-23.71,0.57 L-24.48,-0.74 L-25.26,-2.05 L-26.36,-2.56 L-27.47,-3.06 L-28.96,-3.06 L-30.45,-3.06 L-31.97,-2.13 L-33.49,-1.2 L-33.96,0.02 L-34.42,1.24 L-34.76,8.97 L-35.1,16.69 L-37.31,16.84 L-39.52,16.98 L-39.76,16.36 ZM136,16.37 L135.81,15.76 L135.57,5.37 L135.33,-5.02 L135.75,-6.13 L136.18,-7.25 L138.28,-7.25 L140.37,-7.25 L140.9,-6.41 L141.42,-5.57 L143.54,-6.64 L145.65,-7.71 L147.84,-7.71 L150.03,-7.71 L150.58,-7.05 L151.13,-6.38 L150.99,-4.62 L150.84,-2.87 L148.46,-3 L146.08,-3.13 L144.43,-2.44 L142.78,-1.75 L142.16,-0.66 L141.54,0.42 L141.31,8.56 L141.08,16.69 L138.63,16.83 L136.19,16.97 L136,16.37 Z" style="fill:#7B2CBF;" />
		</g>
	</g>
</svg>